<svg width="295" height="295" viewBox="0 0 295 295" fill="none" xmlns="http://www.w3.org/2000/svg">
<g clip-path="url(#clip0_2_26)">
<path d="M147.421 0C66.133 0 0 66.133 0 147.421C0 188.389 17.259 227.846 47.351 255.676C49.784 257.926 53.58 257.777 55.83 255.345C58.08 252.911 57.932 249.116 55.498 246.866C27.854 221.3 12 185.054 12 147.421C12 72.75 72.75 12 147.421 12C222.092 12 282.842 72.75 282.842 147.421C282.842 222.092 222.092 282.842 147.421 282.842C144.108 282.842 141.421 285.529 141.421 288.842C141.421 292.155 144.108 294.842 147.421 294.842C228.71 294.842 294.842 228.709 294.842 147.421C294.842 66.133 228.71 0 147.421 0Z" fill="currentColor"/>
<circle cx="93" cy="277" r="9" fill="currentColor"/>
</g>
<defs>
</defs>
</svg>
