<svg width="203" height="203" viewBox="0 0 203 203" fill="none" xmlns="http://www.w3.org/2000/svg">
    <line x1="180.816" y1="55.8582" x2="98.8161" y2="9.85823" stroke="currentColor" stroke-width="3" />
    <line x1="100.303" y1="9.84743" x2="19.3028" y2="56.8474" stroke="currentColor" stroke-width="3" />
    <line x1="180.25" y1="54.55" x2="180.25" y2="143.95" stroke="currentColor" stroke-width="3" />
    <line x1="19.95" y1="55.65" x2="19.95" y2="144.75" stroke="currentColor" stroke-width="3" />
    <line x1="19.4381" y1="143.299" x2="100.314" y2="191.206" stroke="currentColor" stroke-width="3" />
    <line x1="98.7853" y1="191.26" x2="116.249" y2="180.911" stroke="currentColor" stroke-width="3" />
    <line x1="163.235" y1="153.059" x2="180.699" y2="142.71" stroke="currentColor" stroke-width="3" />
    <line x1="166.169" y1="34.6507" x2="166.001" y2="167.001" stroke="currentColor" stroke-width="2" />
    <line x1="166.001" y1="166" x2="33.0011" y2="166.145" stroke="currentColor" stroke-width="2" />
    <path d="M34 167L34 85" stroke="currentColor" stroke-width="2" />
    <line x1="167" y1="35.6505" x2="87.918" y2="35.6505" stroke="currentColor" stroke-width="2" />
    <line x1="34" y1="35" x2="34" y2="56" stroke="currentColor" stroke-width="2" />
    <line x1="32.9939" y1="36" x2="55.6934" y2="35.8622" stroke="currentColor" stroke-width="2" />
    <g clip-path="url(#clip0_45_14)">
        <path
            d="M99.9727 50C71.8663 50 49 72.8663 49 100.973C49 115.138 54.9675 128.781 65.3722 138.403C66.2134 139.181 67.526 139.13 68.3039 138.289C69.0819 137.447 69.0307 136.135 68.1891 135.357C58.6309 126.517 53.1492 113.985 53.1492 100.973C53.1492 75.1542 74.1542 54.1492 99.9727 54.1492C125.791 54.1492 146.796 75.1542 146.796 100.973C146.796 126.791 125.791 147.796 99.9727 147.796C98.8272 147.796 97.8981 148.725 97.8981 149.871C97.8981 151.016 98.8272 151.945 99.9727 151.945C128.079 151.945 150.945 129.079 150.945 100.973C150.945 72.8663 128.079 50 99.9727 50Z"
            fill="currentColor"
        />
        <path
            d="M81.1559 148.888C82.8746 148.888 84.2678 147.495 84.2678 145.776C84.2678 144.058 82.8746 142.664 81.1559 142.664C79.4373 142.664 78.0441 144.058 78.0441 145.776C78.0441 147.495 79.4373 148.888 81.1559 148.888Z"
            fill="currentColor"
        />
        <line y1="-1" x2="59.6682" y2="-1" transform="matrix(0.459645 -0.888103 0.838555 0.544818 70 131)" stroke="currentColor" stroke-width="2" />
        <line x1="130" y1="126.974" x2="75.3271" y2="126.974" stroke="currentColor" stroke-width="2" />
        <line y1="-1" x2="59.6651" y2="-1" transform="matrix(0.460122 0.887856 -0.838227 0.545322 96.9159 71)" stroke="currentColor" stroke-width="2" />
    </g>
    <defs>
        <clipPath id="clip0_45_14">
            <rect width="102" height="102" fill="white" transform="translate(49 50)" />
        </clipPath>
    </defs>
</svg>
