<svg width="203" height="203" viewBox="0 0 203 203" fill="none" xmlns="http://www.w3.org/2000/svg">
<line x1="180.816" y1="55.8582" x2="98.8161" y2="9.8582" stroke="currentColor" stroke-width="3"/>
<line x1="100.303" y1="9.8474" x2="19.3028" y2="56.8474" stroke="currentColor" stroke-width="3"/>
<line x1="180.25" y1="54.55" x2="180.25" y2="143.95" stroke="currentColor" stroke-width="3"/>
<line x1="19.95" y1="55.65" x2="19.95" y2="144.75" stroke="currentColor" stroke-width="3"/>
<line x1="19.4381" y1="143.299" x2="100.314" y2="191.206" stroke="currentColor" stroke-width="3"/>
<line x1="98.7853" y1="191.26" x2="116.249" y2="180.911" stroke="currentColor" stroke-width="3"/>
<line x1="163.235" y1="153.059" x2="180.699" y2="142.71" stroke="currentColor" stroke-width="3"/>
<line x1="145.73" y1="54.4507" x2="145.73" y2="147" stroke="currentColor" stroke-width="2"/>
<line x1="144.984" y1="146.019" x2="53" y2="146.019" stroke="currentColor" stroke-width="2"/>
<path d="M53.7623 146.554L53.7623 89.5015" stroke="currentColor" stroke-width="2"/>
<line x1="146" y1="55.4514" x2="91.1148" y2="55.4514" stroke="currentColor" stroke-width="2"/>
<line x1="54" y1="54" x2="54" y2="69.3504" stroke="currentColor" stroke-width="2"/>
<line x1="53.5082" y1="54.9865" x2="68.7541" y2="54.9865" stroke="currentColor" stroke-width="2"/>
<line y1="-1" x2="59.6682" y2="-1" transform="matrix(0.459645 -0.888103 0.838555 0.544818 70 131)" stroke="currentColor" stroke-width="2"/>
<line x1="130" y1="126.974" x2="75.3271" y2="126.974" stroke="currentColor" stroke-width="2"/>
<line y1="-1" x2="59.6651" y2="-1" transform="matrix(0.460122 0.887856 -0.838227 0.545322 96.9159 71)" stroke="currentColor" stroke-width="2"/>
</svg>
