<!-- icon666.com - MILLIONS OF FREE VECTOR ICONS --><svg id="Capa_1" enable-background="new 0 0 38.695 38.695" viewBox="0 0 38.695 38.695" xmlns="http://www.w3.org/2000/svg"><g><path d="m29.25 25.062 9.445 9.445-4.191 4.185-9.437-9.438c1.398-1.396 2.788-2.798 4.183-4.192z"></path><path d="m22.125 20.929 4.567 4.574-1.185 1.184-4.574-4.566c.422-.372.817-.77 1.192-1.192z"></path><path d="m5.254 15.753h5.996c.414 0 .754.336.754.75s-.336.754-.754.75h-5.996c-.414.004-.754-.336-.75-.75 0-.414.336-.75.75-.75zm0-4.5h13.5c.414 0 .75.332.754.746 0 .418-.336.754-.754.754h-13.5c-.414 0-.754-.336-.75-.754 0-.414.336-.746.75-.746zm0-4.5h13.5c.418-.004.754.336.754.75-.004.414-.34.75-.754.75h-13.5c-.414 0-.75-.336-.75-.75-.004-.414.336-.754.75-.75zm6.75-6.75c-6.637 0-12.004 5.359-12.004 11.996s5.367 12.004 12.004 12.004 11.996-5.367 11.996-12.004-5.359-11.996-11.996-11.996z"></path></g></svg>